<?xml version="1.0" standalone="no"?>
<!DOCTYPE svg PUBLIC "-//W3C//DTD SVG 20010904//EN"
 "http://www.w3.org/TR/2001/REC-SVG-20010904/DTD/svg10.dtd">
<svg version="1.0" xmlns="http://www.w3.org/2000/svg"
 width="1000.000000pt" height="1000.000000pt" viewBox="0 0 1000.000000 1000.000000"
 preserveAspectRatio="xMidYMid meet">
<metadata>
Created by potrace 1.11, written by Peter Selinger 2001-2013
</metadata>
<g transform="translate(0.000000,1000.000000) scale(0.100000,-0.100000)"
fill="#000000" stroke="none">
<path d="M7365 9875 c-27 -9 -59 -17 -70 -20 -35 -8 -95 -38 -95 -47 0 -5 -4
-7 -9 -3 -5 3 -16 -2 -24 -10 -9 -8 -18 -15 -22 -15 -4 0 -12 -6 -20 -12 -7
-7 -27 -24 -45 -38 -18 -14 -37 -29 -44 -35 -75 -66 -109 -87 -117 -74 -5 8
-9 19 -9 26 0 15 -75 60 -110 67 -14 2 -44 9 -66 14 -43 10 -231 8 -271 -2
-13 -3 -32 -8 -44 -11 -64 -14 -120 -74 -96 -104 10 -12 9 -13 -3 -6 -13 8
-13 7 -1 -8 9 -12 10 -17 2 -17 -7 0 -9 -5 -5 -11 10 -17 10 -89 0 -89 -5 0
-4 -6 3 -13 8 -10 7 -17 -1 -25 -7 -7 -8 -12 -3 -12 6 0 11 -110 12 -278 4
-516 13 -1065 17 -1070 3 -2 1 -14 -4 -27 -5 -13 -6 -26 -3 -29 3 -3 8 -131 9
-283 9 -754 13 -995 17 -1000 3 -2 1 -17 -3 -33 -4 -16 -7 -30 -5 -32 10 -9
12 -58 4 -58 -6 0 -7 -5 -3 -11 4 -6 9 -161 11 -343 l4 -331 -153 -1 c-164 0
-237 -4 -253 -13 -5 -3 -26 -6 -45 -7 -19 -1 -35 -3 -35 -4 0 -1 -11 -3 -25
-5 -14 -1 -63 -12 -110 -25 -47 -12 -93 -24 -102 -26 -10 -2 -28 -7 -40 -10
-13 -3 -27 -6 -33 -8 -33 -8 -92 -30 -102 -39 -7 -5 -13 -6 -13 -2 0 4 -6 2
-14 -4 -8 -6 -18 -11 -22 -10 -5 2 -20 -2 -34 -8 -24 -11 -60 -25 -70 -28 -3
0 -33 -15 -67 -33 -35 -18 -66 -32 -70 -33 -5 0 -15 -6 -23 -13 -8 -6 -28 -18
-45 -26 -16 -8 -55 -33 -87 -55 -31 -22 -66 -47 -78 -55 -88 -59 -249 -190
-322 -261 -60 -59 -101 -89 -135 -102 -47 -18 -263 -124 -353 -174 -25 -13
-89 -48 -143 -76 -129 -68 -131 -70 -149 -87 -9 -8 -39 -28 -67 -45 -28 -16
-51 -33 -51 -37 0 -5 -5 -8 -10 -8 -6 0 -28 -12 -49 -28 -21 -15 -47 -33 -57
-39 -11 -7 -85 -58 -166 -113 -81 -55 -151 -100 -154 -100 -4 0 -14 -8 -23
-17 -9 -10 -34 -34 -57 -53 -79 -68 -168 -145 -190 -165 -12 -11 -44 -38 -70
-60 -67 -56 -110 -99 -179 -180 -33 -38 -67 -76 -75 -85 -8 -9 -33 -38 -55
-64 -22 -26 -49 -58 -60 -70 -12 -12 -38 -43 -58 -68 -36 -44 -49 -50 -72 -37
-22 13 -61 18 -75 9 -12 -7 -9 -16 18 -49 18 -22 32 -43 32 -47 0 -4 -11 -22
-25 -40 -14 -18 -25 -37 -25 -43 0 -6 -4 -11 -8 -11 -5 0 -15 -12 -23 -27 -8
-16 -20 -34 -26 -41 -7 -7 -13 -20 -13 -27 0 -7 -6 -20 -13 -27 -7 -7 -33 -48
-57 -90 -29 -52 -50 -78 -62 -78 -10 0 -18 5 -18 12 0 6 -3 9 -6 5 -4 -3 -21
1 -38 10 -17 10 -33 18 -36 18 -13 4 -47 17 -62 26 -19 10 -68 12 -68 4 0 -22
48 -90 99 -138 34 -32 61 -62 61 -66 0 -5 -9 -30 -19 -57 -24 -61 -47 -133
-66 -204 -9 -30 -19 -64 -24 -75 -14 -33 -36 -109 -33 -117 1 -5 -2 -8 -6 -8
-5 0 -9 -6 -10 -12 -10 -84 -18 -133 -31 -183 -4 -16 -7 -61 -6 -100 0 -38 -4
-74 -10 -78 -6 -6 -6 -10 3 -14 6 -2 9 -9 6 -15 -11 -18 -10 -198 1 -198 6 0
6 -3 -1 -8 -14 -9 -10 -122 5 -150 7 -14 8 -22 2 -22 -7 0 -7 -8 -2 -23 5 -12
5 -31 1 -42 -4 -11 -3 -30 1 -43 5 -13 11 -49 13 -80 3 -31 6 -59 7 -62 1 -3
3 -9 4 -15 2 -5 4 -12 5 -15 1 -3 4 -18 6 -35 11 -87 13 -102 18 -125 3 -14 9
-45 12 -70 9 -62 11 -71 24 -105 6 -16 13 -37 15 -45 3 -15 48 -137 88 -240
12 -30 23 -63 24 -73 4 -22 52 -87 64 -87 5 0 9 -5 9 -11 0 -7 8 -19 18 -28 9
-9 42 -45 72 -81 30 -36 64 -74 75 -86 11 -12 36 -40 55 -62 19 -23 39 -42 44
-42 5 0 17 -6 25 -14 9 -7 43 -28 75 -45 33 -17 64 -35 70 -40 6 -4 31 -20 56
-33 25 -14 84 -48 132 -76 74 -43 121 -62 163 -68 6 0 17 -4 25 -7 8 -4 33
-11 55 -16 22 -5 58 -15 80 -21 22 -6 47 -12 55 -14 8 -2 35 -9 60 -16 25 -7
52 -14 60 -15 8 -2 17 -4 20 -6 3 -1 10 -3 15 -4 6 -2 12 -4 15 -5 3 -1 13 -3
23 -6 9 -2 25 -6 35 -8 9 -3 17 -5 17 -6 0 -5 108 -13 360 -25 55 -3 136 -7
180 -10 113 -7 206 -7 235 0 14 3 54 8 90 11 86 8 125 12 125 14 0 1 16 3 35
5 35 3 88 10 165 20 22 3 63 8 90 10 28 2 61 6 75 9 14 2 47 7 74 11 27 3 57
10 68 16 10 5 18 7 18 5 0 -3 12 -1 28 5 15 6 34 12 42 14 172 43 505 137 516
146 6 5 13 6 17 3 9 -9 81 16 202 71 78 35 271 117 280 119 6 1 36 14 69 29
32 15 62 27 67 27 5 0 17 4 27 10 9 5 55 27 102 49 79 37 158 79 170 91 9 9
85 51 103 57 9 3 17 9 17 14 0 5 6 9 14 9 8 0 21 6 28 13 7 6 27 19 43 27 17
8 35 19 40 23 22 17 128 77 136 77 5 0 9 5 9 10 0 6 3 9 8 8 12 -3 101 54 178
114 41 32 76 58 79 58 3 0 13 8 23 17 10 10 33 30 52 45 118 91 146 112 150
117 3 4 21 18 42 33 20 15 43 35 52 44 9 8 16 13 16 11 0 -15 137 119 308 300
45 48 114 122 153 163 39 41 127 160 197 265 69 105 128 192 131 195 18 16 96
172 116 230 1 3 6 16 12 30 66 155 115 281 119 305 3 17 7 44 10 60 3 17 7 41
9 55 3 14 7 45 10 70 3 25 8 57 10 73 15 86 27 168 30 202 2 17 5 44 8 60 5
28 13 90 23 169 2 17 7 51 10 76 3 25 6 52 6 60 1 8 6 18 12 22 7 5 6 8 -4 8
-12 0 -13 2 -1 9 8 5 10 14 5 22 -4 8 -10 34 -12 57 -2 34 0 42 10 36 10 -6 9
-3 -1 9 -10 13 -10 17 -1 17 9 0 9 4 -1 17 -10 11 -10 14 -1 9 14 -8 12 19 -2
43 -7 10 -6 12 4 6 10 -6 11 -4 4 6 -9 15 -10 19 -19 89 -4 25 -8 59 -11 75
-2 17 -6 50 -8 75 -3 25 -6 45 -7 45 0 0 -3 14 -4 30 -2 17 -6 41 -9 55 -4 14
-8 46 -11 73 -3 26 -6 53 -8 59 -1 6 -39 86 -83 177 -79 160 -85 170 -185 275
-193 204 -298 306 -312 306 -8 0 -20 7 -27 15 -7 8 -16 12 -21 9 -5 -3 -9 -1
-9 4 0 5 -17 17 -37 28 -21 10 -40 21 -43 24 -11 12 -90 60 -98 60 -4 0 -13 5
-20 12 -6 6 -17 13 -24 14 -7 1 -43 14 -79 28 -37 14 -69 22 -73 19 -3 -4 -6
-1 -6 5 0 7 -3 11 -7 11 -23 -4 -38 6 -95 60 -129 121 -154 142 -175 148 -13
3 -23 8 -23 13 0 4 -18 15 -40 25 -22 10 -40 23 -40 28 0 6 -3 7 -6 4 -4 -3
-18 3 -32 13 -13 11 -31 20 -38 20 -8 0 -14 5 -14 10 0 6 -6 10 -13 10 -7 0
-28 11 -47 25 -18 13 -37 22 -41 19 -5 -3 -9 -1 -9 4 0 5 -19 14 -42 21 -24 6
-59 18 -78 26 -53 20 -74 28 -85 30 -5 1 -12 3 -15 4 -3 2 -16 4 -30 6 -14 2
-38 7 -55 11 -27 6 -55 11 -78 13 -4 1 -4 34 -1 74 4 39 7 87 8 105 0 17 3 32
6 32 5 0 11 94 14 207 0 29 3 53 6 53 3 0 6 26 8 58 3 68 5 83 15 100 5 7 3
12 -3 12 -6 0 -9 4 -6 8 4 7 10 58 21 182 3 30 8 84 11 120 3 36 7 82 9 102 2
20 6 41 10 47 3 6 1 11 -5 11 -7 0 -8 6 -2 18 5 9 8 34 8 55 -1 20 1 37 4 37
4 0 7 28 7 63 1 34 2 62 3 62 2 0 4 16 5 35 4 43 14 149 20 210 2 25 6 72 9
105 10 108 24 262 32 340 3 28 7 73 8 100 2 28 4 52 6 55 1 3 1 13 0 23 -1 16
4 15 52 -9 29 -15 60 -29 68 -30 17 -3 52 -11 60 -14 3 -1 10 -3 15 -5 6 -1
12 -3 15 -4 15 -8 68 -11 170 -13 113 -1 157 3 233 21 20 5 37 7 37 5 0 -1 16
4 35 12 19 8 35 12 35 9 0 -10 123 42 265 112 76 37 201 120 280 186 61 51
215 203 215 213 0 3 8 14 18 23 21 20 92 108 92 114 0 3 17 32 39 64 21 32 41
68 45 81 4 12 12 22 18 22 6 0 9 3 5 6 -3 4 1 21 10 38 10 17 17 33 18 36 0 3
3 10 7 16 19 29 34 93 27 112 -8 21 -12 20 -116 -34 -119 -61 -182 -86 -195
-77 -10 6 -29 48 -35 78 -2 10 -7 22 -11 25 -4 3 -8 10 -9 17 -7 34 -15 91
-16 116 -1 15 -4 27 -7 27 -3 0 -6 16 -8 36 -1 20 -5 41 -9 47 -6 10 -9 22
-15 72 -2 11 -7 25 -11 30 -5 6 -35 54 -68 107 -60 98 -65 102 -214 213 -15
10 -33 20 -41 21 -7 1 -33 9 -56 17 -62 22 -149 47 -183 53 -17 2 -37 7 -45
10 -36 13 -89 12 -135 -1z"/>
</g>
</svg>
